<?xml version="1.0" encoding="UTF-8" standalone="no"?>
<!-- Created with Inkscape (http://www.inkscape.org/) -->

<svg
   width="600"
   height="600"
   viewBox="0 0 158.75 158.75"
   version="1.1"
   id="svg810"
   xml:space="preserve"
   inkscape:version="1.2.2 (b0a8486541, 2022-12-01)"
   sodipodi:docname="meta-black.svg"
   xmlns:inkscape="http://www.inkscape.org/namespaces/inkscape"
   xmlns:sodipodi="http://sodipodi.sourceforge.net/DTD/sodipodi-0.dtd"
   xmlns="http://www.w3.org/2000/svg"
   xmlns:svg="http://www.w3.org/2000/svg"><sodipodi:namedview
     id="namedview812"
     pagecolor="#ffffff"
     bordercolor="#000000"
     borderopacity="0.25"
     inkscape:showpageshadow="2"
     inkscape:pageopacity="0.0"
     inkscape:pagecheckerboard="0"
     inkscape:deskcolor="#d1d1d1"
     inkscape:document-units="mm"
     showgrid="false"
     inkscape:zoom="1.1660765"
     inkscape:cx="231.11691"
     inkscape:cy="343.03067"
     inkscape:window-width="1920"
     inkscape:window-height="1012"
     inkscape:window-x="0"
     inkscape:window-y="0"
     inkscape:window-maximized="1"
     inkscape:current-layer="layer1" /><defs
     id="defs807" /><g
     inkscape:label="Layer 1"
     inkscape:groupmode="layer"
     id="layer1"
     transform="translate(-25.625,-69.125)"><rect
       style="opacity:1;fill:#2f2f2f;stroke-width:0.614384;fill-opacity:1"
       id="rect343"
       width="158.75"
       height="158.75"
       x="25.625"
       y="69.125" /><path
       style="opacity:1;fill:#1f1f1f;fill-opacity:1;stroke-width:0.264583"
       d="m 46.659022,116.81141 16.143098,-0.67734 h 16.538209 l 26.388301,0.0148 44.67355,-0.13674 10.32269,4.66702 23.65013,17.06536 V 227.875 H 109.43904 L 47.122808,190.60661 46.8848,144.41272 Z"
       id="path1831"
       inkscape:label="Shadow" /><g
       id="g1753"
       inkscape:label="meta"
       style="display:inline"><path
         d="m 46.8848,144.41272 h 8.353771 v -16.08666 c 0,-0.73377 0.05644,-1.52399 0.338666,-2.20133 0.508,-1.35466 1.806221,-3.048 4.007553,-3.048 2.765775,0 4.007552,2.37067 4.007552,5.81378 v 15.52221 h 8.353772 v -16.1431 c 0,-0.73378 0.112888,-1.58044 0.282222,-2.20133 0.620888,-1.63689 1.975554,-2.99156 4.007552,-2.99156 2.765776,0 4.063997,2.31423 4.063997,6.32178 v 15.01421 h 8.353771 v -16.25599 c 0,-8.29733 -4.007552,-12.02266 -9.313326,-12.02266 -2.031998,0 -3.72533,0.508 -5.249329,1.35467 -1.354666,0.79022 -2.539998,1.91911 -3.612442,3.38666 H 70.36567 c -1.185332,-2.87866 -3.951108,-4.74133 -7.563549,-4.74133 -4.684886,0 -7.168439,2.59645 -8.353772,4.40267 h -0.169333 l -0.338666,-3.72533 h -7.281328 c 0.112889,2.48355 0.225778,5.36221 0.225778,8.80532 z"
         style="font-weight:bold;font-size:56.4444px;font-family:'Myriad Pro';-inkscape-font-specification:'Myriad Pro Bold';letter-spacing:-1.6263px;opacity:1;fill:#ffffff;stroke-width:0.303413"
         id="path278" /><path
         d="m 117.75129,133.30798 c 0.11289,-0.62089 0.28222,-1.91911 0.28222,-3.38667 0,-6.82977 -3.38666,-13.77243 -12.30488,-13.77243 -9.595561,0 -13.94178,7.73288 -13.94178,14.73199 0,8.63599 5.362218,14.05465 14.732,14.05465 3.72533,0 7.16844,-0.56444 9.99066,-1.74977 l -1.12889,-5.81378 c -2.31422,0.79022 -4.68488,1.18534 -7.61999,1.18534 -4.00755,0 -7.56355,-1.69334 -7.789335,-5.24933 z m -17.83644,-5.87022 c 0.22579,-2.25778 1.69334,-5.588 5.30578,-5.588 3.95111,0 4.85422,3.49956 4.85422,5.588 z"
         style="font-weight:bold;font-size:56.4444px;font-family:'Myriad Pro';-inkscape-font-specification:'Myriad Pro Bold';letter-spacing:-1.6263px;opacity:1;fill:#ffffff;stroke-width:0.303413"
         id="path280" /><path
         d="m 122.40782,111.63333 v 5.13644 h -3.66889 v 6.32177 h 3.66889 v 11.28888 c 0,3.89466 0.79022,6.54755 2.37066,8.18444 1.41111,1.41111 3.72533,2.37066 6.49111,2.37066 2.37066,0 4.45911,-0.33866 5.53155,-0.73377 l -0.0564,-6.49111 c -0.79023,0.16933 -1.35467,0.22578 -2.54,0.22578 -2.54,0 -3.38667,-1.524 -3.38667,-4.85422 v -9.99066 h 6.15244 v -6.32177 h -6.15244 v -7.45066 z"
         style="font-weight:bold;font-size:56.4444px;font-family:'Myriad Pro';-inkscape-font-specification:'Myriad Pro Bold';letter-spacing:-1.6263px;opacity:1;fill:#ffffff;stroke-width:0.303413"
         id="path282" /><path
         d="m 162.48129,127.97836 c 0,-6.54755 -2.87867,-11.96622 -12.07911,-11.96622 -5.02355,0 -8.80532,1.41111 -10.72443,2.48356 l 1.58044,5.53155 c 1.80622,-1.12889 4.79778,-2.08844 7.62,-2.08844 4.23333,0 5.02355,2.08844 5.02355,3.61244 v 0.33866 c -9.76488,0 -16.19955,3.38667 -16.19955,10.55511 0,4.40266 3.33022,8.46666 8.91822,8.46666 3.27378,0 6.096,-1.18534 7.90222,-3.38667 h 0.16933 l 0.508,2.76578 h 7.73288 c -0.33866,-1.524 -0.45155,-4.064 -0.45155,-6.66044 z m -8.29733,6.26533 c 0,0.50799 -0.0564,1.01599 -0.16933,1.46755 -0.56445,1.74978 -2.37067,3.16089 -4.45911,3.16089 -1.91911,0 -3.38667,-1.07245 -3.38667,-3.27378 0,-3.27377 3.49956,-4.34622 8.01511,-4.34622 z"
         style="font-weight:bold;font-size:56.4444px;font-family:'Myriad Pro';-inkscape-font-specification:'Myriad Pro Bold';letter-spacing:-1.6263px;opacity:1;fill:#ffffff;stroke-width:0.303413"
         id="path284" /></g><g
       id="g1763"
       inkscape:label="KGP"
       style="display:inline"><path
         d="m 62.264033,176.05276 v 14.55385 H 47.122808 v -43.72682 h 15.141225 v 15.46755 h 2.610556 l 4.894792,-15.46755 h 15.010698 l -6.983238,21.14551 7.635877,22.58131 H 70.226229 l -5.286376,-14.55385 z"
         id="path973"
         style="font-weight:900;font-size:65.2639px;font-family:'Titillium Web';-inkscape-font-specification:'Titillium Web Heavy';opacity:1;fill:#ffffff;stroke-width:0.271734" /><path
         d="m 123.43952,164.89362 v 24.4087 q -11.81277,1.89265 -17.49073,1.89265 -5.67795,0 -9.724339,-1.24001 -3.981098,-1.30528 -6.265336,-4.24216 -2.284235,-2.93687 -3.197931,-6.91797 -0.848431,-3.9811 -0.848431,-10.11591 0,-12.59593 4.699001,-17.62125 4.699001,-5.02532 15.859156,-5.02532 3.32846,0 7.50534,0.58738 4.17689,0.52211 6.65692,1.04422 l 2.48003,0.58737 v 11.42119 q -9.398,-0.84843 -13.3791,-0.84843 -3.91583,0 -5.15585,0.39158 -1.17475,0.32632 -1.89265,0.84843 -0.7179,0.45685 -1.04422,1.89265 -0.45685,2.02318 -0.45685,7.11377 0,5.09058 1.17475,7.44008 1.17475,2.28424 4.76427,2.28424 l 2.21897,-0.0653 v -3.2632 h -1.95792 l -0.0653,-10.57275 z"
         id="path975"
         style="font-weight:900;font-size:65.2639px;font-family:'Titillium Web';-inkscape-font-specification:'Titillium Web Heavy';opacity:1;fill:#ffffff;stroke-width:0.271734" /><path
         d="m 144.44062,181.33913 h -2.02318 v 9.26748 h -15.14123 v -43.72682 h 17.16441 q 10.37696,0 15.07596,3.58952 4.76427,3.58951 4.76427,13.50962 0,9.85485 -4.76427,13.64016 -4.76426,3.72004 -15.07596,3.72004 z m -2.02318,-11.94329 h 1.37054 q 2.80635,0 3.9811,-1.24002 1.24001,-1.24001 1.24001,-4.24215 0,-3.00214 -1.17475,-4.04636 -1.10948,-1.04422 -4.04636,-1.04422 h -1.37054 z"
         id="path977"
         style="font-weight:900;font-size:65.2639px;font-family:'Titillium Web';-inkscape-font-specification:'Titillium Web Heavy';opacity:1;fill:#ffffff;stroke-width:0.271734" /></g></g></svg>
