<?xml version="1.0" encoding="UTF-8" standalone="no"?>
<!-- Created with Inkscape (http://www.inkscape.org/) -->

<svg
   width="48"
   height="48"
   viewBox="0 0 12.7 12.7"
   version="1.1"
   id="svg5"
   xml:space="preserve"
   inkscape:version="1.2.2 (b0a8486541, 2022-12-01)"
   sodipodi:docname="m-black.svg"
   xmlns:inkscape="http://www.inkscape.org/namespaces/inkscape"
   xmlns:sodipodi="http://sodipodi.sourceforge.net/DTD/sodipodi-0.dtd"
   xmlns="http://www.w3.org/2000/svg"
   xmlns:svg="http://www.w3.org/2000/svg"><sodipodi:namedview
     id="namedview7"
     pagecolor="#ffffff"
     bordercolor="#000000"
     borderopacity="0.25"
     inkscape:showpageshadow="2"
     inkscape:pageopacity="0.0"
     inkscape:pagecheckerboard="0"
     inkscape:deskcolor="#d1d1d1"
     inkscape:document-units="mm"
     showgrid="false"
     inkscape:zoom="17.409543"
     inkscape:cx="26.795649"
     inkscape:cy="28.088044"
     inkscape:window-width="1920"
     inkscape:window-height="1012"
     inkscape:window-x="0"
     inkscape:window-y="0"
     inkscape:window-maximized="1"
     inkscape:current-layer="layer1" /><defs
     id="defs2" /><g
     inkscape:label="Layer 1"
     inkscape:groupmode="layer"
     id="layer1"
     transform="translate(-11.14941,-67.415596)"><rect
       style="opacity:1;fill:#2f2f2f;stroke-width:2.19141;fill-opacity:1"
       id="rect6968"
       width="12.700001"
       height="12.700002"
       x="11.14941"
       y="67.415596"
       ry="0" /><path
       d="m 14.667135,77.141434 h -1.685317 v -6.2885 h 1.67274 v 0.352156 q 0.867813,-0.50308 1.484086,-0.50308 1.018737,0 1.572125,0.591119 1.157084,-0.591119 2.112936,-0.591119 1.245123,0 1.723049,0.729466 0.490503,0.716889 0.490503,2.301591 v 3.408367 h -1.685318 v -3.358059 q 0,-0.804928 -0.176078,-1.182238 -0.176078,-0.389887 -0.704312,-0.389887 -0.402464,0 -0.981006,0.176078 l -0.188655,0.06289 q 0.05031,0.943275 0.05031,1.433778 v 3.257443 H 16.66688 V 73.90915 q 0,-0.930698 -0.163501,-1.308008 -0.163501,-0.389887 -0.716889,-0.389887 -0.490503,0 -0.968429,0.176078 l -0.150924,0.05031 z"
       style="font-weight:bold;font-size:12.577px;font-family:'Titillium Web';-inkscape-font-specification:'Titillium Web Bold';fill:#ececec;stroke-width:0.23582"
       id="path7157" /></g></svg>
